<svg xmlns="http://www.w3.org/2000/svg" viewBox="0 0 800 420"><rect width="800" height="420" fill="#eaf3df"/><rect y="320" width="800" height="100" fill="#b8d994"/><circle cx="675" cy="88" r="45" fill="#ffcb05"/><g fill="#0a3d12"><rect x="105" y="130" width="22" height="190"/><circle cx="116" cy="122" r="72"/><rect x="620" y="160" width="20" height="160"/><circle cx="630" cy="150" r="58"/></g><path d="M0 320c130-55 235-15 360-35 150-24 275-10 440 35" fill="#7fbd64"/><ellipse cx="392" cy="305" rx="88" ry="48" fill="#2b211b"/><circle cx="330" cy="289" r="45" fill="#fff" stroke="#2b211b" stroke-width="10"/><ellipse cx="320" cy="292" rx="8" ry="10" fill="#ffcb05"/><ellipse cx="345" cy="292" rx="8" ry="10" fill="#ffcb05"/><ellipse cx="332" cy="315" rx="13" ry="9" fill="#000"/><ellipse cx="540" cy="330" rx="58" ry="17" fill="#bb962e"/><rect x="482" y="330" width="116" height="35" fill="#d9d2bf"/><ellipse cx="540" cy="365" rx="58" ry="17" fill="#b8aa85"/><path d="M420 294c54-32 63-4 94-29 19-15 16-33 40-45" fill="none" stroke="#ffcb05" stroke-width="9" stroke-linecap="round"/><text x="55" y="58" fill="#0a3d12" font-family="Arial" font-size="30" font-weight="700">RECHERCHE EXTÉRIEURE</text></svg>